<svg xmlns="http://www.w3.org/2000/svg" version="1.1" xmlns:xlink="http://www.w3.org/1999/xlink" xmlns:svgjs="http://svgjs.dev/svgjs" width="1000" height="1000"><g clip-path="url(#SvgjsClipPath1237)"><rect width="1000" height="1000" fill="#000000"></rect><g transform="matrix(14.285714285714286,0,0,14.285714285714286,57.14285714285711,50)"><svg xmlns="http://www.w3.org/2000/svg" version="1.1" xmlns:xlink="http://www.w3.org/1999/xlink" xmlns:svgjs="http://svgjs.dev/svgjs" width="62" height="63"><svg width="62" height="63" viewBox="0 0 62 63" fill="none" xmlns="http://www.w3.org/2000/svg">
<path d="M60.2882 21.6519C62.7342 28.7528 62.4774 36.4771 59.5789 43.4069C53.0603 58.9776 35.0823 66.3475 19.5014 59.8332C11.9556 56.6799 6.08521 50.7767 2.97881 43.2114C-0.127591 35.646 -0.103131 27.3229 3.06442 19.7819C9.58296 4.21122 27.5609 -3.15859 43.1419 3.35569L41.7232 6.74116C28.0135 1.00908 12.1879 7.49892 6.4521 21.1997C3.67591 27.8362 3.65145 35.1571 6.37873 41.8181C9.11823 48.479 14.2793 53.6733 20.9201 56.4477C34.6298 62.1798 50.4554 55.6899 56.1912 41.9892C58.7472 35.8904 58.9674 29.0828 56.8149 22.8374L60.2882 21.6397V21.6519Z" fill="white"></path>
<path d="M47.9833 46.3803C46.0092 48.6391 43.5618 50.4801 40.751 51.7738C35.5069 54.1915 29.6395 54.4286 24.2134 52.436C18.7872 50.4433 14.4801 46.4637 12.0582 41.2268C9.63629 35.9899 9.39803 30.1309 11.3907 24.7248L14.8337 25.9854C13.1746 30.4825 13.377 35.343 15.384 39.6885C17.391 44.0341 20.9837 47.3428 25.4754 48.998C29.967 50.6533 34.8465 50.4539 39.198 48.4504C43.5495 46.4468 46.8624 42.8597 48.5194 38.3747C50.1764 33.8896 49.9761 29.0172 47.9691 24.6716C45.9621 20.326 42.3694 17.0173 37.8778 15.3621C33.7349 13.8424 29.2047 13.8921 25.0959 15.504L23.7448 12.092C28.6832 10.1416 34.1468 10.0818 39.1397 11.9241C44.5539 13.9147 48.8731 17.8964 51.2949 23.1333C53.7168 28.3702 53.9551 34.2292 51.9603 39.6474C51.034 42.1642 49.6793 44.4324 47.967 46.4022L47.9833 46.3803Z" fill="white"></path>
<path fill-rule="evenodd" clip-rule="evenodd" d="M31.5405 23.0228C26.5631 23.0228 22.5282 27.0535 22.5282 32.0257C22.5282 36.9978 26.5631 41.0286 31.5405 41.0286C36.5179 41.0286 40.5529 36.9978 40.5529 32.0257C40.5529 27.0535 36.5179 23.0228 31.5405 23.0228ZM18.9232 32.0257C18.9232 25.0647 24.5722 19.4217 31.5405 19.4217C38.5089 19.4217 44.1579 25.0647 44.1579 32.0257C44.1579 38.9867 38.5089 44.6297 31.5405 44.6297C24.5722 44.6297 18.9232 38.9867 18.9232 32.0257Z" fill="white"></path>
</svg></svg></g></g><defs><clipPath id="SvgjsClipPath1237"><rect width="1000" height="1000" x="0" y="0" rx="500" ry="500"></rect></clipPath></defs></svg>