<svg width="361" height="63" viewBox="0 0 361 63" fill="none" xmlns="http://www.w3.org/2000/svg">
<path d="M60.2882 21.6519C62.7342 28.7529 62.4774 36.4771 59.5789 43.4069C53.0603 58.9777 35.0823 66.3475 19.5014 59.8332C11.9556 56.6799 6.08521 50.7767 2.97881 43.2114C-0.127591 35.646 -0.103131 27.3229 3.06442 19.782C9.58296 4.21124 27.5609 -3.15858 43.1419 3.35571L41.7232 6.74118C28.0135 1.0091 12.1879 7.49894 6.4521 21.1997C3.67591 27.8362 3.65145 35.1571 6.37873 41.8181C9.11823 48.479 14.2793 53.6733 20.9201 56.4477C34.6298 62.1798 50.4554 55.69 56.1912 41.9892C58.7472 35.8905 58.9674 29.0828 56.8149 22.8374L60.2882 21.6397V21.6519Z" fill="white"/>
<path d="M47.9833 46.3803C46.0091 48.6391 43.5618 50.4802 40.751 51.7738C35.5069 54.1915 29.6395 54.4286 24.2134 52.436C18.7872 50.4434 14.4801 46.4638 12.0582 41.2269C9.63628 35.9899 9.39802 30.1309 11.3907 24.7248L14.8337 25.9855C13.1746 30.4825 13.377 35.343 15.384 39.6886C17.391 44.0342 20.9837 47.3428 25.4754 48.9981C29.967 50.6533 34.8465 50.454 39.198 48.4504C43.5495 46.4469 46.8624 42.8597 48.5194 38.3747C50.1764 33.8897 49.9761 29.0172 47.9691 24.6716C45.9621 20.326 42.3694 17.0174 37.8777 15.3621C33.7349 13.8424 29.2047 13.8921 25.0959 15.504L23.7448 12.092C28.6832 10.1417 34.1468 10.0819 39.1397 11.9242C44.5538 13.9147 48.873 17.8964 51.2949 23.1333C53.7168 28.3702 53.9551 34.2293 51.9603 39.6474C51.034 42.1643 49.6793 44.4324 47.967 46.4022L47.9833 46.3803Z" fill="white"/>
<path fill-rule="evenodd" clip-rule="evenodd" d="M31.5405 23.0228C26.5631 23.0228 22.5282 27.0535 22.5282 32.0257C22.5282 36.9979 26.5631 41.0286 31.5405 41.0286C36.5179 41.0286 40.5529 36.9979 40.5529 32.0257C40.5529 27.0535 36.5179 23.0228 31.5405 23.0228ZM18.9232 32.0257C18.9232 25.0647 24.5722 19.4217 31.5405 19.4217C38.5089 19.4217 44.1579 25.0647 44.1579 32.0257C44.1579 38.9867 38.5089 44.6297 31.5405 44.6297C24.5722 44.6297 18.9232 38.9867 18.9232 32.0257Z" fill="white"/>
<path d="M96.4238 42.5878C94.3161 42.5878 92.4921 42.1323 90.9518 41.2212C89.4317 40.2899 88.2563 39.0043 87.4253 37.3644C86.6146 35.7043 86.2093 33.7911 86.2093 31.6248C86.2093 29.4383 86.6146 27.5251 87.4253 25.8852C88.2563 24.2251 89.4317 22.9293 90.9518 21.9981C92.4921 21.0668 94.3161 20.6011 96.4238 20.6011C98.9572 20.6011 101.024 21.2287 102.626 22.4839C104.227 23.7189 105.24 25.4702 105.666 27.7377H101.653C101.369 26.5432 100.791 25.6018 99.9199 24.9134C99.0484 24.2251 97.8729 23.8809 96.3934 23.8809C95.0558 23.8809 93.9006 24.1947 92.9278 24.8223C91.9752 25.4297 91.2355 26.3205 90.7086 27.4947C90.2019 28.6487 89.9486 30.0254 89.9486 31.6248C89.9486 33.2242 90.2019 34.6009 90.7086 35.7549C91.2355 36.8887 91.9752 37.7694 92.9278 38.397C93.9006 39.0043 95.0558 39.308 96.3934 39.308C97.8729 39.308 99.0484 38.9942 99.9199 38.3666C100.791 37.7187 101.369 36.8279 101.653 35.6942H105.666C105.26 37.8402 104.247 39.5307 102.626 40.7657C101.024 41.9804 98.9572 42.5878 96.4238 42.5878Z" fill="white"/>
<path d="M124.192 42.2234V20.9655H127.84V42.2234H124.192ZM110.755 42.2234V20.9655H114.403V42.2234H110.755ZM113.856 32.8699V29.8938H124.891V32.8699H113.856Z" fill="white"/>
<path d="M133.68 42.2234V20.9655H147.421V23.9113H137.328V30.0153H146.509V32.9003H137.328V39.2777H147.421V42.2234H133.68Z" fill="white"/>
<path d="M162.23 42.5878C160.122 42.5878 158.298 42.1323 156.758 41.2212C155.238 40.2899 154.062 39.0043 153.231 37.3644C152.421 35.7043 152.015 33.7911 152.015 31.6248C152.015 29.4383 152.421 27.5251 153.231 25.8852C154.062 24.2251 155.238 22.9293 156.758 21.9981C158.298 21.0668 160.122 20.6011 162.23 20.6011C164.763 20.6011 166.831 21.2287 168.432 22.4839C170.033 23.7189 171.046 25.4702 171.472 27.7377H167.459C167.175 26.5432 166.598 25.6018 165.726 24.9134C164.855 24.2251 163.679 23.8809 162.2 23.8809C160.862 23.8809 159.707 24.1947 158.734 24.8223C157.781 25.4297 157.042 26.3205 156.515 27.4947C156.008 28.6487 155.755 30.0254 155.755 31.6248C155.755 33.2242 156.008 34.6009 156.515 35.7549C157.042 36.8887 157.781 37.7694 158.734 38.397C159.707 39.0043 160.862 39.308 162.2 39.308C163.679 39.308 164.855 38.9942 165.726 38.3666C166.598 37.7187 167.175 36.8279 167.459 35.6942H171.472C171.066 37.8402 170.053 39.5307 168.432 40.7657C166.831 41.9804 164.763 42.5878 162.23 42.5878Z" fill="white"/>
<path d="M176.561 42.2234V20.9655H180.209V29.742L188.235 20.9655H192.765L184.891 29.4079L192.947 42.2234H188.509L182.307 32.2018L180.209 34.4795V42.2234H176.561Z" fill="white"/>
<path d="M197.319 42.2234V20.9655H211.06V23.9113H200.967V30.0153H210.148V32.9003H200.967V39.2777H211.06V42.2234H197.319Z" fill="white"/>
<path d="M216.414 42.2234V20.9655H224.045C225.727 20.9655 227.115 21.2591 228.21 21.8462C229.325 22.4131 230.145 23.1824 230.672 24.1542C231.219 25.1057 231.493 26.1889 231.493 27.4036C231.493 28.5374 231.23 29.5901 230.703 30.5619C230.176 31.5337 229.355 32.3132 228.24 32.9003C227.126 33.4874 225.697 33.781 223.954 33.781H220.063V42.2234H216.414ZM227.511 42.2234L223.042 32.8396H226.994L231.675 42.2234H227.511ZM220.063 31.0782H223.802C225.16 31.0782 226.153 30.7543 226.781 30.1064C227.43 29.4383 227.754 28.5677 227.754 27.4947C227.754 26.442 227.44 25.6018 226.811 24.9742C226.183 24.3263 225.18 24.0024 223.802 24.0024H220.063V31.0782Z" fill="white"/>
<path d="M232.426 42.2232L234.66 37.5313L235.777 35.1853H231.772L230.602 37.5313L228.261 42.2232H232.426Z" fill="white"/>
<path d="M246.934 42.5878H244.99V30.5278H246.934V42.5878ZM254.368 42.5878H245.566V40.8418H254.368V42.5878ZM260.125 42.7678C259.153 42.7678 258.301 42.5878 257.569 42.2278C256.837 41.8678 256.267 41.3398 255.859 40.6438C255.463 39.9478 255.265 39.1078 255.265 38.1238C255.265 37.1878 255.463 36.3718 255.859 35.6758C256.267 34.9798 256.831 34.4398 257.551 34.0558C258.271 33.6598 259.117 33.4618 260.089 33.4618C261.013 33.4618 261.823 33.6298 262.519 33.9658C263.227 34.2898 263.773 34.7698 264.157 35.4058C264.553 36.0298 264.751 36.7978 264.751 37.7098C264.751 37.8658 264.745 38.0158 264.733 38.1598C264.721 38.2918 264.703 38.4238 264.679 38.5558H256.507V37.4758H263.401L262.897 38.1418C262.909 38.0218 262.915 37.9078 262.915 37.7998C262.915 37.6798 262.915 37.5598 262.915 37.4398C262.915 36.6118 262.675 35.9998 262.195 35.6038C261.727 35.1958 261.013 34.9918 260.053 34.9918C258.985 34.9918 258.223 35.2378 257.767 35.7298C257.311 36.2218 257.083 36.9298 257.083 37.8538V38.3218C257.083 39.2578 257.311 39.9718 257.767 40.4638C258.223 40.9558 258.991 41.2018 260.071 41.2018C261.007 41.2018 261.679 41.0578 262.087 40.7698C262.507 40.4698 262.717 40.0558 262.717 39.5278V39.3838H264.661V39.5458C264.661 40.1818 264.463 40.7458 264.067 41.2378C263.683 41.7178 263.149 42.0958 262.465 42.3718C261.793 42.6358 261.013 42.7678 260.125 42.7678ZM274.667 42.5878H272.885V40.2838L272.759 40.2298V37.1698C272.759 36.4258 272.579 35.9098 272.219 35.6218C271.871 35.3218 271.265 35.1718 270.401 35.1718C269.573 35.1718 268.955 35.3158 268.547 35.6038C268.139 35.8918 267.935 36.3658 267.935 37.0258V37.0978H266.009V37.0258C266.009 36.3418 266.189 35.7358 266.549 35.2078C266.909 34.6678 267.425 34.2418 268.097 33.9298C268.781 33.6178 269.597 33.4618 270.545 33.4618C271.493 33.4618 272.267 33.6238 272.867 33.9478C273.479 34.2598 273.929 34.6918 274.217 35.2438C274.517 35.7958 274.667 36.4318 274.667 37.1518V42.5878ZM268.835 42.7678C267.911 42.7678 267.173 42.5638 266.621 42.1558C266.081 41.7358 265.811 41.1598 265.811 40.4278C265.811 39.9598 265.925 39.5698 266.153 39.2578C266.393 38.9338 266.729 38.6818 267.161 38.5018C267.593 38.3218 268.103 38.1958 268.691 38.1238L272.939 37.6738V38.8258L269.249 39.2398C268.745 39.2998 268.367 39.4078 268.115 39.5638C267.875 39.7078 267.755 39.9538 267.755 40.3018C267.755 40.6618 267.881 40.9318 268.133 41.1118C268.397 41.2798 268.805 41.3638 269.357 41.3638C270.041 41.3638 270.635 41.2798 271.139 41.1118C271.643 40.9318 272.039 40.6558 272.327 40.2838C272.615 39.9118 272.759 39.4318 272.759 38.8438L273.011 38.8798V40.3558H272.759C272.519 41.1118 272.057 41.7058 271.373 42.1378C270.701 42.5578 269.855 42.7678 268.835 42.7678ZM280.345 42.7678C279.397 42.7678 278.593 42.5758 277.933 42.1918C277.285 41.7958 276.793 41.2498 276.457 40.5538C276.121 39.8458 275.953 39.0358 275.953 38.1238C275.953 37.1878 276.121 36.3718 276.457 35.6758C276.793 34.9798 277.279 34.4398 277.915 34.0558C278.551 33.6598 279.319 33.4618 280.219 33.4618C281.275 33.4618 282.109 33.7078 282.721 34.1998C283.333 34.6918 283.729 35.3158 283.909 36.0718H284.359V38.0698H284.017C284.017 37.1218 283.747 36.4138 283.207 35.9458C282.667 35.4658 281.899 35.2258 280.903 35.2258C280.291 35.2258 279.757 35.3218 279.301 35.5138C278.845 35.6938 278.497 35.9938 278.257 36.4138C278.029 36.8338 277.915 37.4038 277.915 38.1238C277.915 38.8318 278.029 39.3958 278.257 39.8158C278.497 40.2358 278.845 40.5358 279.301 40.7158C279.757 40.8958 280.303 40.9858 280.939 40.9858C281.575 40.9858 282.121 40.8898 282.577 40.6978C283.045 40.4938 283.399 40.1818 283.639 39.7618C283.891 39.3418 284.017 38.8258 284.017 38.2138H284.359L284.485 40.0138H284.053C283.873 40.9018 283.459 41.5858 282.811 42.0658C282.175 42.5338 281.353 42.7678 280.345 42.7678ZM285.961 42.5878H284.179V39.7798L284.017 39.5458V30.5278H285.961V42.5878ZM292.258 42.7678C291.286 42.7678 290.434 42.5878 289.702 42.2278C288.97 41.8678 288.4 41.3398 287.992 40.6438C287.596 39.9478 287.398 39.1078 287.398 38.1238C287.398 37.1878 287.596 36.3718 287.992 35.6758C288.4 34.9798 288.964 34.4398 289.684 34.0558C290.404 33.6598 291.25 33.4618 292.222 33.4618C293.146 33.4618 293.956 33.6298 294.652 33.9658C295.36 34.2898 295.906 34.7698 296.29 35.4058C296.686 36.0298 296.884 36.7978 296.884 37.7098C296.884 37.8658 296.878 38.0158 296.866 38.1598C296.854 38.2918 296.836 38.4238 296.812 38.5558H288.64V37.4758H295.534L295.03 38.1418C295.042 38.0218 295.048 37.9078 295.048 37.7998C295.048 37.6798 295.048 37.5598 295.048 37.4398C295.048 36.6118 294.808 35.9998 294.328 35.6038C293.86 35.1958 293.146 34.9918 292.186 34.9918C291.118 34.9918 290.356 35.2378 289.9 35.7298C289.444 36.2218 289.216 36.9298 289.216 37.8538V38.3218C289.216 39.2578 289.444 39.9718 289.9 40.4638C290.356 40.9558 291.124 41.2018 292.204 41.2018C293.14 41.2018 293.812 41.0578 294.22 40.7698C294.64 40.4698 294.85 40.0558 294.85 39.5278V39.3838H296.794V39.5458C296.794 40.1818 296.596 40.7458 296.2 41.2378C295.816 41.7178 295.282 42.0958 294.598 42.3718C293.926 42.6358 293.146 42.7678 292.258 42.7678ZM300.284 42.5878H298.34V33.6418H300.122V36.1798L300.284 36.2698V42.5878ZM300.284 37.5658H299.852V36.0538H300.248C300.332 35.5618 300.5 35.1238 300.752 34.7398C301.004 34.3438 301.34 34.0318 301.76 33.8038C302.192 33.5758 302.714 33.4618 303.326 33.4618C304.01 33.4618 304.568 33.6058 305 33.8938C305.432 34.1818 305.744 34.5658 305.936 35.0458C306.14 35.5258 306.242 36.0478 306.242 36.6118V37.7818H304.316V36.9898C304.316 36.3418 304.172 35.8678 303.884 35.5678C303.596 35.2678 303.116 35.1178 302.444 35.1178C301.676 35.1178 301.124 35.3278 300.788 35.7478C300.452 36.1678 300.284 36.7738 300.284 37.5658ZM313.097 42.7678C312.077 42.7678 311.249 42.5338 310.613 42.0658C309.977 41.5858 309.563 40.9018 309.371 40.0138H308.939L309.065 38.2138H309.407C309.407 38.8258 309.527 39.3418 309.767 39.7618C310.019 40.1818 310.373 40.4938 310.829 40.6978C311.297 40.8898 311.849 40.9858 312.485 40.9858C313.145 40.9858 313.697 40.8958 314.141 40.7158C314.597 40.5358 314.939 40.2358 315.167 39.8158C315.407 39.3958 315.527 38.8318 315.527 38.1238C315.527 37.4038 315.407 36.8338 315.167 36.4138C314.927 35.9938 314.585 35.6938 314.141 35.5138C313.697 35.3218 313.157 35.2258 312.521 35.2258C311.513 35.2258 310.739 35.4658 310.199 35.9458C309.671 36.4138 309.407 37.1218 309.407 38.0698H309.065V36.0718H309.515C309.695 35.3158 310.085 34.6918 310.685 34.1998C311.297 33.7078 312.137 33.4618 313.205 33.4618C314.129 33.4618 314.903 33.6598 315.527 34.0558C316.163 34.4398 316.643 34.9798 316.967 35.6758C317.303 36.3718 317.471 37.1878 317.471 38.1238C317.471 39.0358 317.303 39.8458 316.967 40.5538C316.643 41.2498 316.151 41.7958 315.491 42.1918C314.843 42.5758 314.045 42.7678 313.097 42.7678ZM309.245 42.5878H307.463V30.5278H309.407V39.5458L309.245 39.7798V42.5878ZM323.391 42.7678C322.407 42.7678 321.537 42.5758 320.781 42.1918C320.037 41.7958 319.455 41.2498 319.035 40.5538C318.627 39.8458 318.423 39.0358 318.423 38.1238C318.423 37.1878 318.627 36.3718 319.035 35.6758C319.455 34.9798 320.037 34.4398 320.781 34.0558C321.537 33.6598 322.407 33.4618 323.391 33.4618C324.399 33.4618 325.275 33.6598 326.019 34.0558C326.763 34.4398 327.339 34.9798 327.747 35.6758C328.167 36.3718 328.377 37.1878 328.377 38.1238C328.377 39.0358 328.167 39.8458 327.747 40.5538C327.339 41.2498 326.763 41.7958 326.019 42.1918C325.275 42.5758 324.399 42.7678 323.391 42.7678ZM323.391 41.0398C324.483 41.0398 325.269 40.7938 325.749 40.3018C326.229 39.7978 326.469 39.0718 326.469 38.1238C326.469 37.1758 326.229 36.4498 325.749 35.9458C325.269 35.4298 324.483 35.1718 323.391 35.1718C322.311 35.1718 321.531 35.4298 321.051 35.9458C320.571 36.4498 320.331 37.1758 320.331 38.1238C320.331 39.0718 320.571 39.7978 321.051 40.3018C321.531 40.7938 322.311 41.0398 323.391 41.0398ZM338.247 42.5878H336.465V40.2838L336.339 40.2298V37.1698C336.339 36.4258 336.159 35.9098 335.799 35.6218C335.451 35.3218 334.845 35.1718 333.981 35.1718C333.153 35.1718 332.535 35.3158 332.127 35.6038C331.719 35.8918 331.515 36.3658 331.515 37.0258V37.0978H329.589V37.0258C329.589 36.3418 329.769 35.7358 330.129 35.2078C330.489 34.6678 331.005 34.2418 331.677 33.9298C332.361 33.6178 333.177 33.4618 334.125 33.4618C335.073 33.4618 335.847 33.6238 336.447 33.9478C337.059 34.2598 337.509 34.6918 337.797 35.2438C338.097 35.7958 338.247 36.4318 338.247 37.1518V42.5878ZM332.415 42.7678C331.491 42.7678 330.753 42.5638 330.201 42.1558C329.661 41.7358 329.391 41.1598 329.391 40.4278C329.391 39.9598 329.505 39.5698 329.733 39.2578C329.973 38.9338 330.309 38.6818 330.741 38.5018C331.173 38.3218 331.683 38.1958 332.271 38.1238L336.519 37.6738V38.8258L332.829 39.2398C332.325 39.2998 331.947 39.4078 331.695 39.5638C331.455 39.7078 331.335 39.9538 331.335 40.3018C331.335 40.6618 331.461 40.9318 331.713 41.1118C331.977 41.2798 332.385 41.3638 332.937 41.3638C333.621 41.3638 334.215 41.2798 334.719 41.1118C335.223 40.9318 335.619 40.6558 335.907 40.2838C336.195 39.9118 336.339 39.4318 336.339 38.8438L336.591 38.8798V40.3558H336.339C336.099 41.1118 335.637 41.7058 334.953 42.1378C334.281 42.5578 333.435 42.7678 332.415 42.7678ZM341.927 42.5878H339.983V33.6418H341.765V36.1798L341.927 36.2698V42.5878ZM341.927 37.5658H341.495V36.0538H341.891C341.975 35.5618 342.143 35.1238 342.395 34.7398C342.647 34.3438 342.983 34.0318 343.403 33.8038C343.835 33.5758 344.357 33.4618 344.969 33.4618C345.653 33.4618 346.211 33.6058 346.643 33.8938C347.075 34.1818 347.387 34.5658 347.579 35.0458C347.783 35.5258 347.885 36.0478 347.885 36.6118V37.7818H345.959V36.9898C345.959 36.3418 345.815 35.8678 345.527 35.5678C345.239 35.2678 344.759 35.1178 344.087 35.1178C343.319 35.1178 342.767 35.3278 342.431 35.7478C342.095 36.1678 341.927 36.7738 341.927 37.5658ZM353.048 42.7678C352.1 42.7678 351.296 42.5758 350.636 42.1918C349.988 41.7958 349.496 41.2498 349.16 40.5538C348.824 39.8458 348.656 39.0358 348.656 38.1238C348.656 37.1878 348.824 36.3718 349.16 35.6758C349.496 34.9798 349.982 34.4398 350.618 34.0558C351.254 33.6598 352.022 33.4618 352.922 33.4618C353.978 33.4618 354.812 33.7078 355.424 34.1998C356.036 34.6918 356.432 35.3158 356.612 36.0718H357.062V38.0698H356.72C356.72 37.1218 356.45 36.4138 355.91 35.9458C355.37 35.4658 354.602 35.2258 353.606 35.2258C352.994 35.2258 352.46 35.3218 352.004 35.5138C351.548 35.6938 351.2 35.9938 350.96 36.4138C350.732 36.8338 350.618 37.4038 350.618 38.1238C350.618 38.8318 350.732 39.3958 350.96 39.8158C351.2 40.2358 351.548 40.5358 352.004 40.7158C352.46 40.8958 353.006 40.9858 353.642 40.9858C354.278 40.9858 354.824 40.8898 355.28 40.6978C355.748 40.4938 356.102 40.1818 356.342 39.7618C356.594 39.3418 356.72 38.8258 356.72 38.2138H357.062L357.188 40.0138H356.756C356.576 40.9018 356.162 41.5858 355.514 42.0658C354.878 42.5338 354.056 42.7678 353.048 42.7678ZM358.664 42.5878H356.882V39.7798L356.72 39.5458V30.5278H358.664V42.5878Z" fill="white"/>
</svg>
