<svg width="762" height="37" viewBox="0 0 762 37" fill="none" xmlns="http://www.w3.org/2000/svg">
<path d="M534.556 31.3098L534.556 18.0357" stroke="#75E5C7" stroke-opacity="0.8" stroke-width="2" stroke-miterlimit="10"/>
<path d="M542.908 28.2731L542.908 18.0357" stroke="#75E5C7" stroke-opacity="0.8" stroke-width="2" stroke-miterlimit="10"/>
<path d="M526.204 36.486L526.204 18.0357" stroke="#75E5C7" stroke-opacity="0.8" stroke-width="2" stroke-miterlimit="10"/>
<path d="M526.227 36.1869L495.308 1.01169" stroke="#75E5C7" stroke-opacity="0.8" stroke-width="2" stroke-miterlimit="10"/>
<path d="M515.343 36.1869L484.423 1.01169" stroke="#75E5C7" stroke-opacity="0.8" stroke-width="2" stroke-miterlimit="10"/>
<path d="M476.072 5.86584L476.072 19.1399" stroke="#75E5C7" stroke-opacity="0.8" stroke-width="2" stroke-miterlimit="10"/>
<path d="M467.72 8.90256L467.72 19.1399" stroke="#75E5C7" stroke-opacity="0.8" stroke-width="2" stroke-miterlimit="10"/>
<path d="M484.423 0.689636L484.423 19.1399" stroke="#75E5C7" stroke-opacity="0.8" stroke-width="2" stroke-miterlimit="10"/>
<path d="M615.882 31.3098L615.882 18.0357" stroke="#75E5C7" stroke-opacity="0.8" stroke-width="2" stroke-miterlimit="10"/>
<path d="M624.234 28.2731L624.234 18.0357" stroke="#75E5C7" stroke-opacity="0.8" stroke-width="2" stroke-miterlimit="10"/>
<path d="M607.53 36.486L607.53 18.0357" stroke="#75E5C7" stroke-opacity="0.8" stroke-width="2" stroke-miterlimit="10"/>
<path d="M607.553 36.1869L576.634 1.01172" stroke="#75E5C7" stroke-opacity="0.8" stroke-width="2" stroke-miterlimit="10"/>
<path d="M596.669 36.1869L565.749 1.01172" stroke="#75E5C7" stroke-opacity="0.8" stroke-width="2" stroke-miterlimit="10"/>
<path d="M557.398 5.86588L557.398 19.14" stroke="#75E5C7" stroke-opacity="0.8" stroke-width="2" stroke-miterlimit="10"/>
<path d="M549.046 8.90259L549.046 19.14" stroke="#75E5C7" stroke-opacity="0.8" stroke-width="2" stroke-miterlimit="10"/>
<path d="M565.749 0.689667L565.749 19.14" stroke="#75E5C7" stroke-opacity="0.8" stroke-width="2" stroke-miterlimit="10"/>
<path d="M697.208 31.3098L697.208 18.0357" stroke="#75E5C7" stroke-opacity="0.8" stroke-width="2" stroke-miterlimit="10"/>
<path d="M705.56 28.2731L705.56 18.0357" stroke="#75E5C7" stroke-opacity="0.8" stroke-width="2" stroke-miterlimit="10"/>
<path d="M688.856 36.486L688.856 18.0357" stroke="#75E5C7" stroke-opacity="0.8" stroke-width="2" stroke-miterlimit="10"/>
<path d="M688.879 36.1869L657.96 1.01169" stroke="#75E5C7" stroke-opacity="0.8" stroke-width="2" stroke-miterlimit="10"/>
<path d="M677.995 36.1869L647.075 1.01169" stroke="#75E5C7" stroke-opacity="0.8" stroke-width="2" stroke-miterlimit="10"/>
<path d="M638.724 5.86584L638.724 19.1399" stroke="#75E5C7" stroke-opacity="0.8" stroke-width="2" stroke-miterlimit="10"/>
<path d="M630.372 8.90256L630.372 19.1399" stroke="#75E5C7" stroke-opacity="0.8" stroke-width="2" stroke-miterlimit="10"/>
<path d="M647.075 0.689636L647.075 19.1399" stroke="#75E5C7" stroke-opacity="0.8" stroke-width="2" stroke-miterlimit="10"/>
<path d="M770.206 36.1869L739.286 1.01169" stroke="#75E5C7" stroke-opacity="0.8" stroke-width="2" stroke-miterlimit="10"/>
<path d="M759.321 36.1869L728.401 1.01169" stroke="#75E5C7" stroke-opacity="0.8" stroke-width="2" stroke-miterlimit="10"/>
<path d="M720.05 5.86584L720.05 19.1399" stroke="#75E5C7" stroke-opacity="0.8" stroke-width="2" stroke-miterlimit="10"/>
<path d="M711.698 8.90256L711.698 19.1399" stroke="#75E5C7" stroke-opacity="0.8" stroke-width="2" stroke-miterlimit="10"/>
<path d="M728.402 0.689636L728.402 19.1399" stroke="#75E5C7" stroke-opacity="0.8" stroke-width="2" stroke-miterlimit="10"/>
<path d="M453.23 31.3098L453.23 18.0357" stroke="#75E5C7" stroke-opacity="0.8" stroke-width="2" stroke-miterlimit="10"/>
<path d="M461.582 28.2731L461.582 18.0357" stroke="#75E5C7" stroke-opacity="0.8" stroke-width="2" stroke-miterlimit="10"/>
<path d="M444.879 36.486L444.879 18.0357" stroke="#75E5C7" stroke-opacity="0.8" stroke-width="2" stroke-miterlimit="10"/>
<path d="M444.901 36.1869L413.982 1.01169" stroke="#75E5C7" stroke-opacity="0.8" stroke-width="2" stroke-miterlimit="10"/>
<path d="M434.016 36.1869L403.097 1.01169" stroke="#75E5C7" stroke-opacity="0.8" stroke-width="2" stroke-miterlimit="10"/>
<path d="M394.745 5.86584L394.745 19.1399" stroke="#75E5C7" stroke-opacity="0.8" stroke-width="2" stroke-miterlimit="10"/>
<path d="M386.394 8.90256L386.394 19.1399" stroke="#75E5C7" stroke-opacity="0.8" stroke-width="2" stroke-miterlimit="10"/>
<path d="M403.097 0.689636L403.097 19.1399" stroke="#75E5C7" stroke-opacity="0.8" stroke-width="2" stroke-miterlimit="10"/>
<path d="M371.904 31.3098L371.904 18.0357" stroke="#75E5C7" stroke-opacity="0.8" stroke-width="2" stroke-miterlimit="10"/>
<path d="M380.256 28.2731L380.256 18.0357" stroke="#75E5C7" stroke-opacity="0.8" stroke-width="2" stroke-miterlimit="10"/>
<path d="M363.552 36.486L363.552 18.0357" stroke="#75E5C7" stroke-opacity="0.8" stroke-width="2" stroke-miterlimit="10"/>
<path d="M363.575 36.1869L332.656 1.01169" stroke="#75E5C7" stroke-opacity="0.8" stroke-width="2" stroke-miterlimit="10"/>
<path d="M352.691 36.1869L321.771 1.01169" stroke="#75E5C7" stroke-opacity="0.8" stroke-width="2" stroke-miterlimit="10"/>
<path d="M313.42 5.86584L313.42 19.1399" stroke="#75E5C7" stroke-opacity="0.8" stroke-width="2" stroke-miterlimit="10"/>
<path d="M305.068 8.90256L305.068 19.1399" stroke="#75E5C7" stroke-opacity="0.8" stroke-width="2" stroke-miterlimit="10"/>
<path d="M321.771 0.689636L321.771 19.1399" stroke="#75E5C7" stroke-opacity="0.8" stroke-width="2" stroke-miterlimit="10"/>
<path d="M290.579 31.3098L290.579 18.0357" stroke="#75E5C7" stroke-opacity="0.8" stroke-width="2" stroke-miterlimit="10"/>
<path d="M298.93 28.2731L298.93 18.0357" stroke="#75E5C7" stroke-opacity="0.8" stroke-width="2" stroke-miterlimit="10"/>
<path d="M282.227 36.486L282.227 18.0357" stroke="#75E5C7" stroke-opacity="0.8" stroke-width="2" stroke-miterlimit="10"/>
<path d="M282.25 36.1869L251.33 1.01172" stroke="#75E5C7" stroke-opacity="0.8" stroke-width="2" stroke-miterlimit="10"/>
<path d="M271.365 36.1869L240.446 1.01172" stroke="#75E5C7" stroke-opacity="0.8" stroke-width="2" stroke-miterlimit="10"/>
<path d="M232.094 5.86591L232.094 19.14" stroke="#75E5C7" stroke-opacity="0.8" stroke-width="2" stroke-miterlimit="10"/>
<path d="M223.742 8.90259L223.742 19.14" stroke="#75E5C7" stroke-opacity="0.8" stroke-width="2" stroke-miterlimit="10"/>
<path d="M240.446 0.689667L240.446 19.14" stroke="#75E5C7" stroke-opacity="0.8" stroke-width="2" stroke-miterlimit="10"/>
<path d="M209.253 31.3098L209.253 18.0357" stroke="#75E5C7" stroke-opacity="0.8" stroke-width="2" stroke-miterlimit="10"/>
<path d="M217.604 28.273L217.604 18.0356" stroke="#75E5C7" stroke-opacity="0.8" stroke-width="2" stroke-miterlimit="10"/>
<path d="M200.901 36.486L200.901 18.0357" stroke="#75E5C7" stroke-opacity="0.8" stroke-width="2" stroke-miterlimit="10"/>
<path d="M200.924 36.1869L170.004 1.01169" stroke="#75E5C7" stroke-opacity="0.8" stroke-width="2" stroke-miterlimit="10"/>
<path d="M190.039 36.1869L159.12 1.01169" stroke="#75E5C7" stroke-opacity="0.8" stroke-width="2" stroke-miterlimit="10"/>
<path d="M150.768 5.86581L150.768 19.1399" stroke="#75E5C7" stroke-opacity="0.8" stroke-width="2" stroke-miterlimit="10"/>
<path d="M142.416 8.90256L142.416 19.1399" stroke="#75E5C7" stroke-opacity="0.8" stroke-width="2" stroke-miterlimit="10"/>
<path d="M159.12 0.689636L159.12 19.1399" stroke="#75E5C7" stroke-opacity="0.8" stroke-width="2" stroke-miterlimit="10"/>
<path d="M127.926 31.3098L127.926 18.0357" stroke="#75E5C7" stroke-opacity="0.8" stroke-width="2" stroke-miterlimit="10"/>
<path d="M136.278 28.2731L136.278 18.0357" stroke="#75E5C7" stroke-opacity="0.8" stroke-width="2" stroke-miterlimit="10"/>
<path d="M119.575 36.486L119.575 18.0357" stroke="#75E5C7" stroke-opacity="0.8" stroke-width="2" stroke-miterlimit="10"/>
<path d="M119.598 36.1869L88.6781 1.01169" stroke="#75E5C7" stroke-opacity="0.8" stroke-width="2" stroke-miterlimit="10"/>
<path d="M108.713 36.1869L77.7937 1.01169" stroke="#75E5C7" stroke-opacity="0.8" stroke-width="2" stroke-miterlimit="10"/>
<path d="M69.4421 5.86581L69.4421 19.1399" stroke="#75E5C7" stroke-opacity="0.8" stroke-width="2" stroke-miterlimit="10"/>
<path d="M61.0903 8.90256L61.0903 19.1399" stroke="#75E5C7" stroke-opacity="0.8" stroke-width="2" stroke-miterlimit="10"/>
<path d="M77.7937 0.689636L77.7937 19.1399" stroke="#75E5C7" stroke-opacity="0.8" stroke-width="2" stroke-miterlimit="10"/>
<path d="M0.962841 18.5878L40.4849 18.5878" stroke="#75E5C7" stroke-opacity="0.8" stroke-width="2" stroke-miterlimit="10"/>
</svg>
