<svg xmlns="http://www.w3.org/2000/svg" width="473" height="31" viewBox="0 0 473 31" fill="none">
<path d="M29.6678 4.99667L29.6678 16.0066" stroke="#363636" stroke-opacity="0.9" stroke-width="2" stroke-miterlimit="10"/>
<path d="M22.7405 7.51541L22.7405 16.0066" stroke="#363636" stroke-opacity="0.9" stroke-width="2" stroke-miterlimit="10"/>
<path d="M36.595 0.703374L36.595 16.0066" stroke="#363636" stroke-opacity="0.9" stroke-width="2" stroke-miterlimit="10"/>
<path d="M36.5761 0.95149L62.2215 30.1268" stroke="#363636" stroke-opacity="0.9" stroke-width="2" stroke-miterlimit="10"/>
<path d="M45.604 0.95149L71.2494 30.1268" stroke="#363636" stroke-opacity="0.9" stroke-width="2" stroke-miterlimit="10"/>
<path d="M78.1764 26.1007L78.1764 15.0908" stroke="#363636" stroke-opacity="0.9" stroke-width="2" stroke-miterlimit="10"/>
<path d="M85.1035 23.5819L85.1035 15.0907" stroke="#363636" stroke-opacity="0.9" stroke-width="2" stroke-miterlimit="10"/>
<path d="M71.2493 30.3939L71.2493 15.0907" stroke="#363636" stroke-opacity="0.9" stroke-width="2" stroke-miterlimit="10"/>
<path d="M-21.8503 0.95149L3.79509 30.1268" stroke="#363636" stroke-opacity="0.9" stroke-width="2" stroke-miterlimit="10"/>
<path d="M10.7219 26.1007L10.7219 15.0908" stroke="#363636" stroke-opacity="0.9" stroke-width="2" stroke-miterlimit="10"/>
<path d="M17.6494 23.5819L17.6494 15.0907" stroke="#363636" stroke-opacity="0.9" stroke-width="2" stroke-miterlimit="10"/>
<path d="M3.79492 30.3939L3.79492 15.0907" stroke="#363636" stroke-opacity="0.9" stroke-width="2" stroke-miterlimit="10"/>
<path d="M97.1216 4.99667L97.1216 16.0066" stroke="#363636" stroke-opacity="0.9" stroke-width="2" stroke-miterlimit="10"/>
<path d="M90.1947 7.5154L90.1947 16.0066" stroke="#363636" stroke-opacity="0.9" stroke-width="2" stroke-miterlimit="10"/>
<path d="M104.049 0.703374L104.049 16.0066" stroke="#363636" stroke-opacity="0.9" stroke-width="2" stroke-miterlimit="10"/>
<path d="M104.03 0.951484L129.675 30.1268" stroke="#363636" stroke-opacity="0.9" stroke-width="2" stroke-miterlimit="10"/>
<path d="M113.058 0.951484L138.704 30.1268" stroke="#363636" stroke-opacity="0.9" stroke-width="2" stroke-miterlimit="10"/>
<path d="M145.631 26.1007L145.631 15.0908" stroke="#363636" stroke-opacity="0.9" stroke-width="2" stroke-miterlimit="10"/>
<path d="M152.557 23.5819L152.557 15.0907" stroke="#363636" stroke-opacity="0.9" stroke-width="2" stroke-miterlimit="10"/>
<path d="M138.703 30.3939L138.703 15.0907" stroke="#363636" stroke-opacity="0.9" stroke-width="2" stroke-miterlimit="10"/>
<path d="M164.576 4.99667L164.576 16.0066" stroke="#363636" stroke-opacity="0.9" stroke-width="2" stroke-miterlimit="10"/>
<path d="M157.649 7.51541L157.649 16.0066" stroke="#363636" stroke-opacity="0.9" stroke-width="2" stroke-miterlimit="10"/>
<path d="M171.503 0.703379L171.503 16.0066" stroke="#363636" stroke-opacity="0.9" stroke-width="2" stroke-miterlimit="10"/>
<path d="M171.484 0.95149L197.13 30.1268" stroke="#363636" stroke-opacity="0.9" stroke-width="2" stroke-miterlimit="10"/>
<path d="M180.512 0.95149L206.157 30.1268" stroke="#363636" stroke-opacity="0.9" stroke-width="2" stroke-miterlimit="10"/>
<path d="M213.085 26.1007L213.085 15.0908" stroke="#363636" stroke-opacity="0.9" stroke-width="2" stroke-miterlimit="10"/>
<path d="M220.012 23.5819L220.012 15.0907" stroke="#363636" stroke-opacity="0.9" stroke-width="2" stroke-miterlimit="10"/>
<path d="M206.157 30.3939L206.157 15.0907" stroke="#363636" stroke-opacity="0.9" stroke-width="2" stroke-miterlimit="10"/>
<path d="M232.03 4.99667L232.03 16.0066" stroke="#363636" stroke-opacity="0.9" stroke-width="2" stroke-miterlimit="10"/>
<path d="M225.103 7.5154L225.103 16.0066" stroke="#363636" stroke-opacity="0.9" stroke-width="2" stroke-miterlimit="10"/>
<path d="M238.957 0.703374L238.957 16.0066" stroke="#363636" stroke-opacity="0.9" stroke-width="2" stroke-miterlimit="10"/>
<path d="M238.938 0.951492L264.583 30.1268" stroke="#363636" stroke-opacity="0.9" stroke-width="2" stroke-miterlimit="10"/>
<path d="M247.966 0.951492L273.611 30.1268" stroke="#363636" stroke-opacity="0.9" stroke-width="2" stroke-miterlimit="10"/>
<path d="M280.538 26.1007L280.538 15.0908" stroke="#363636" stroke-opacity="0.9" stroke-width="2" stroke-miterlimit="10"/>
<path d="M287.465 23.5819L287.465 15.0907" stroke="#363636" stroke-opacity="0.9" stroke-width="2" stroke-miterlimit="10"/>
<path d="M273.611 30.3939L273.611 15.0907" stroke="#363636" stroke-opacity="0.9" stroke-width="2" stroke-miterlimit="10"/>
<path d="M299.484 4.99668L299.484 16.0066" stroke="#363636" stroke-opacity="0.9" stroke-width="2" stroke-miterlimit="10"/>
<path d="M292.557 7.51541L292.557 16.0066" stroke="#363636" stroke-opacity="0.9" stroke-width="2" stroke-miterlimit="10"/>
<path d="M306.411 0.703379L306.411 16.0066" stroke="#363636" stroke-opacity="0.9" stroke-width="2" stroke-miterlimit="10"/>
<path d="M306.392 0.95149L332.037 30.1268" stroke="#363636" stroke-opacity="0.9" stroke-width="2" stroke-miterlimit="10"/>
<path d="M315.42 0.95149L341.065 30.1268" stroke="#363636" stroke-opacity="0.9" stroke-width="2" stroke-miterlimit="10"/>
<path d="M347.992 26.1007L347.992 15.0908" stroke="#363636" stroke-opacity="0.9" stroke-width="2" stroke-miterlimit="10"/>
<path d="M354.92 23.5819L354.92 15.0907" stroke="#363636" stroke-opacity="0.9" stroke-width="2" stroke-miterlimit="10"/>
<path d="M341.065 30.3939L341.065 15.0907" stroke="#363636" stroke-opacity="0.9" stroke-width="2" stroke-miterlimit="10"/>
<path d="M366.938 4.99667L366.938 16.0066" stroke="#363636" stroke-opacity="0.9" stroke-width="2" stroke-miterlimit="10"/>
<path d="M360.011 7.51541L360.011 16.0066" stroke="#363636" stroke-opacity="0.9" stroke-width="2" stroke-miterlimit="10"/>
<path d="M373.865 0.703374L373.865 16.0066" stroke="#363636" stroke-opacity="0.9" stroke-width="2" stroke-miterlimit="10"/>
<path d="M373.846 0.951492L399.492 30.1268" stroke="#363636" stroke-opacity="0.9" stroke-width="2" stroke-miterlimit="10"/>
<path d="M382.874 0.95149L408.52 30.1268" stroke="#363636" stroke-opacity="0.9" stroke-width="2" stroke-miterlimit="10"/>
<path d="M415.447 26.1007L415.447 15.0908" stroke="#363636" stroke-opacity="0.9" stroke-width="2" stroke-miterlimit="10"/>
<path d="M422.374 23.5819L422.374 15.0907" stroke="#363636" stroke-opacity="0.9" stroke-width="2" stroke-miterlimit="10"/>
<path d="M408.519 30.3939L408.519 15.0907" stroke="#363636" stroke-opacity="0.9" stroke-width="2" stroke-miterlimit="10"/>
<path d="M472.245 15.5487L439.465 15.5487" stroke="#363636" stroke-opacity="0.9" stroke-width="2" stroke-miterlimit="10"/>
</svg>
